<svg width="65" height="81" viewBox="0 0 65 81" fill="none" xmlns="http://www.w3.org/2000/svg">
<path d="M56.6392 32.0478C56.3391 31.5585 55.9462 31.1373 55.4972 30.7877C55.9485 30.4369 56.3414 30.0147 56.6414 29.5232L63.3555 18.5276C64.2397 17.0813 64.2397 15.2831 63.3555 13.8368L56.6414 2.84226C55.7584 1.39487 54.1102 0.496338 52.3418 0.496338H38.8989C37.1305 0.496338 35.4835 1.39595 34.5993 2.84226L27.8853 13.8368C27.5795 14.3381 27.387 14.8815 27.2931 15.4379C26.717 15.2203 26.0974 15.1002 25.4606 15.1002H12.0154C10.2481 15.1002 8.59993 15.9998 7.71573 17.4461L1.00171 28.4417C0.118651 29.8881 0.118651 31.6862 1.00171 33.1325L7.71573 44.1282C8.59993 45.5745 10.2469 46.4741 12.0154 46.4741H25.4583C26.0962 46.4741 26.7159 46.3528 27.292 46.1363C27.387 46.6917 27.5806 47.2351 27.8875 47.7342L34.6004 58.7342C35.4835 60.1794 37.1328 61.0779 38.9023 61.0779C39.1612 61.0779 39.3708 61.2771 39.3708 61.5207V76.6734C39.3708 77.8188 39.9091 78.8948 40.8483 79.6277C41.5802 80.1993 42.4907 80.5035 43.4276 80.5035C43.6887 80.5035 43.951 80.4797 44.2122 80.4321C46.102 80.0889 47.4752 78.4607 47.4752 76.5608V61.5196C47.4752 61.275 47.686 61.0768 47.9437 61.0768H48.9894C49.2482 61.0768 49.4578 61.276 49.4578 61.5196V66.3576C49.4578 68.2445 50.8174 69.8738 52.6889 70.23C53.8972 70.4605 55.1284 70.1715 56.0734 69.4408C57.0194 68.7079 57.5623 67.6285 57.5623 66.4778V58.0143C57.5623 57.4914 57.7078 56.9772 57.9838 56.5257L63.3509 47.7364C64.2397 46.289 64.2385 44.4908 63.3509 43.0478L56.6392 32.0478ZM29.869 14.9183L36.583 3.92375C37.0595 3.1443 37.946 2.66039 38.8978 2.66039H52.3407C53.2936 2.66039 54.1801 3.1443 54.6554 3.92375L61.3706 14.9183C61.847 15.6978 61.847 16.6656 61.3706 17.4439L54.6554 28.4396C54.179 29.219 53.2925 29.7029 52.3407 29.7029H52.3361H38.9035H38.8989C37.9471 29.7029 37.0595 29.219 36.5842 28.4396L29.8701 17.4439C29.3925 16.6656 29.3925 15.6978 29.869 14.9183ZM12.0154 44.3089C11.0624 44.3089 10.1759 43.825 9.70061 43.0456L2.9866 32.0499C2.51013 31.2716 2.51013 30.3027 2.9866 29.5243L9.70061 18.5298C10.1771 17.7503 11.0636 17.2664 12.0154 17.2664H25.4583C26.4101 17.2664 27.2977 17.7503 27.773 18.5298L34.487 29.5243C34.9635 30.3038 34.9635 31.2716 34.487 32.0499L27.7719 43.0456C27.2954 43.825 26.4089 44.3089 25.4571 44.3089H12.0154ZM61.3694 46.6495L56.0001 55.4432C55.5236 56.2237 55.2716 57.1125 55.2716 58.0143V66.4778C55.2716 66.9768 55.0345 67.4467 54.6222 67.765C54.2042 68.0876 53.6773 68.2077 53.1424 68.106C52.3487 67.9555 51.7497 67.2031 51.7497 66.3565V61.5185C51.7497 60.0798 50.5116 58.9106 48.9905 58.9106H47.9448C46.4227 58.9106 45.1857 60.0809 45.1857 61.5185V76.5587C45.1857 77.4074 44.5821 78.1576 43.7804 78.3037C43.2443 78.4023 42.7198 78.2789 42.3074 77.9562C41.8974 77.6369 41.6626 77.1681 41.6626 76.6712V61.5196C41.6626 60.0809 40.4245 58.9117 38.9035 58.9117C37.9494 58.9117 37.0606 58.4278 36.5853 57.6505L29.8713 46.6484C29.3937 45.8722 29.3937 44.9076 29.8736 44.1282L36.5853 33.1314C37.0618 32.3531 37.9494 31.8692 38.9035 31.8692H52.3372C53.2913 31.8692 54.1801 32.3531 54.6554 33.1304L61.3694 44.1314C61.847 44.9087 61.847 45.8733 61.3694 46.6495Z" fill="#FF9900"/>
</svg>
