<svg width="487" height="452" viewBox="0 0 487 452" fill="none" xmlns="http://www.w3.org/2000/svg">
<path d="M207.748 146.379L119.841 147.996C118.518 148.027 117.225 148.402 116.094 149.082C114.962 149.762 114.032 150.724 113.397 151.87L70.4972 229.6C69.8786 230.698 69.5635 231.935 69.5837 233.189C69.6039 234.443 69.9587 235.669 70.6123 236.743L115.991 312.85C116.663 313.972 117.624 314.899 118.776 315.537C119.929 316.175 121.233 316.502 122.557 316.484L210.463 314.868C211.787 314.837 213.079 314.462 214.211 313.782C215.342 313.102 216.272 312.14 216.908 310.994L259.807 233.264C260.426 232.166 260.741 230.928 260.721 229.674C260.701 228.421 260.346 227.195 259.692 226.121L214.313 150.014C213.642 148.892 212.681 147.965 211.528 147.327C210.376 146.689 209.072 146.362 207.748 146.379Z" stroke="#FF9900" stroke-width="8.03766" stroke-linecap="round" stroke-linejoin="round"/>
<path d="M350.088 60.6476L262.181 62.264C260.858 62.2954 259.565 62.67 258.434 63.3502C257.303 64.0303 256.372 64.9919 255.737 66.138L212.837 143.868C212.219 144.966 211.904 146.204 211.924 147.458C211.944 148.711 212.299 149.937 212.952 151.011L258.331 227.118C259.003 228.24 259.964 229.167 261.117 229.805C262.269 230.443 263.573 230.77 264.897 230.753L352.804 229.136C354.127 229.105 355.419 228.73 356.551 228.05C357.682 227.37 358.613 226.408 359.248 225.262L402.148 147.532C402.766 146.434 403.081 145.197 403.061 143.943C403.041 142.689 402.686 141.464 402.032 140.389L356.653 64.2823C355.982 63.1603 355.021 62.2334 353.868 61.5953C352.716 60.9571 351.412 60.6302 350.088 60.6476Z" stroke="#FF9900" stroke-width="8.03766" stroke-linecap="round" stroke-linejoin="round"/>
<path d="M353.286 229.776L265.379 231.392C264.056 231.424 262.763 231.798 261.632 232.478C260.501 233.158 259.57 234.12 258.935 235.266L216.035 312.997C215.417 314.094 215.102 315.332 215.122 316.586C215.142 317.839 215.497 319.065 216.151 320.139L261.529 396.246C262.201 397.368 263.162 398.295 264.315 398.933C265.467 399.571 266.771 399.898 268.095 399.881L356.002 398.264C357.325 398.233 358.618 397.859 359.749 397.178C360.88 396.498 361.811 395.537 362.446 394.39L405.346 316.66C405.964 315.563 406.279 314.325 406.259 313.071C406.239 311.817 405.884 310.592 405.231 309.518L359.852 233.411C359.18 232.288 358.219 231.362 357.066 230.723C355.914 230.085 354.61 229.758 353.286 229.776Z" stroke="#FF9900" stroke-width="8.03766" stroke-linecap="round" stroke-linejoin="round"/>
<path d="M225.521 146.378L137.163 147.995C135.833 148.026 134.534 148.401 133.397 149.081C132.259 149.761 131.324 150.722 130.686 151.869L87.5662 229.599C86.9444 230.696 86.6277 231.934 86.648 233.188C86.6684 234.442 87.0249 235.667 87.6819 236.741L133.294 312.848C133.969 313.971 134.934 314.897 136.093 315.536C137.252 316.174 138.562 316.501 139.893 316.483L228.25 314.867C229.58 314.835 230.88 314.461 232.017 313.781C233.154 313.101 234.089 312.139 234.728 310.993L277.847 233.262C278.469 232.165 278.786 230.927 278.765 229.673C278.745 228.42 278.389 227.194 277.732 226.12L232.12 150.013C231.445 148.891 230.479 147.964 229.32 147.326C228.162 146.688 226.851 146.361 225.521 146.378Z" fill="#FF9900" stroke="white" stroke-width="8.03767" stroke-linecap="round" stroke-linejoin="round"/>
<path d="M368.591 60.6464L280.233 62.2629C278.903 62.2942 277.604 62.6688 276.467 63.349C275.329 64.0291 274.394 64.9907 273.756 66.1368L230.636 143.867C230.014 144.965 229.698 146.203 229.718 147.456C229.738 148.71 230.095 149.936 230.752 151.01L276.363 227.117C277.039 228.239 278.004 229.166 279.163 229.804C280.321 230.442 281.632 230.769 282.962 230.752L371.32 229.135C372.65 229.104 373.949 228.729 375.087 228.049C376.224 227.369 377.159 226.407 377.797 225.261L420.917 147.531C421.539 146.433 421.856 145.195 421.835 143.942C421.815 142.688 421.458 141.462 420.801 140.388L375.19 64.2811C374.514 63.1591 373.549 62.2322 372.39 61.5941C371.232 60.9559 369.921 60.629 368.591 60.6464Z" fill="#FF9900" stroke="white" stroke-width="8.03767" stroke-linecap="round" stroke-linejoin="round"/>
<path d="M371.805 229.777L283.448 231.393C282.117 231.425 280.818 231.799 279.681 232.479C278.544 233.159 277.609 234.121 276.97 235.267L233.851 312.998C233.229 314.095 232.912 315.333 232.932 316.587C232.953 317.84 233.309 319.066 233.966 320.14L279.578 396.247C280.253 397.369 281.219 398.296 282.377 398.934C283.536 399.572 284.847 399.899 286.177 399.882L374.535 398.265C375.865 398.234 377.164 397.859 378.301 397.179C379.438 396.499 380.373 395.538 381.012 394.391L424.132 316.661C424.754 315.564 425.07 314.326 425.05 313.072C425.03 311.818 424.673 310.593 424.016 309.519L378.404 233.412C377.729 232.289 376.763 231.363 375.605 230.724C374.446 230.086 373.136 229.759 371.805 229.777Z" fill="#FF9900" stroke="white" stroke-width="8.03767" stroke-linecap="round" stroke-linejoin="round"/>
</svg>
